<svg width="400" height="120" viewBox="0 0 400 120" xmlns="http://www.w3.org/2000/svg">
  <defs>
    <!-- Main gradient for the shield -->
    <linearGradient id="shieldGradient" x1="0%" y1="0%" x2="100%" y2="100%">
      <stop offset="0%" style="stop-color:#3B82F6;stop-opacity:1" />
      <stop offset="50%" style="stop-color:#6366F1;stop-opacity:1" />
      <stop offset="100%" style="stop-color:#8B5CF6;stop-opacity:1" />
    </linearGradient>
    
    <!-- Text gradient -->
    <linearGradient id="textGradient" x1="0%" y1="0%" x2="100%" y2="0%">
      <stop offset="0%" style="stop-color:#1E40AF;stop-opacity:1" />
      <stop offset="50%" style="stop-color:#7C3AED;stop-opacity:1" />
      <stop offset="100%" style="stop-color:#1E40AF;stop-opacity:1" />
    </linearGradient>
    
    <!-- Shadow filter -->
    <filter id="shadow" x="-50%" y="-50%" width="200%" height="200%">
      <feDropShadow dx="2" dy="4" stdDeviation="3" flood-color="#000000" flood-opacity="0.3"/>
    </filter>
    
    <!-- Glow effect -->
    <filter id="glow" x="-50%" y="-50%" width="200%" height="200%">
      <feGaussianBlur stdDeviation="3" result="coloredBlur"/>
      <feMerge> 
        <feMergeNode in="coloredBlur"/>
        <feMergeNode in="SourceGraphic"/>
      </feMerge>
    </filter>
  </defs>
  
  <!-- Background circle for depth -->
  <circle cx="60" cy="60" r="45" fill="url(#shieldGradient)" opacity="0.1" filter="url(#glow)"/>
  
  <!-- Main shield background -->
  <rect x="20" y="20" width="80" height="80" rx="20" ry="20" fill="url(#shieldGradient)" filter="url(#shadow)"/>
  
  <!-- Shield icon path -->
  <path d="M60 30 L45 35 L45 55 C45 65 52 72 60 75 C68 72 75 65 75 55 L75 35 Z" 
        fill="white" 
        stroke="rgba(255,255,255,0.3)" 
        stroke-width="1"/>
  
  <!-- Inner shield detail -->
  <path d="M60 35 L50 38 L50 52 C50 58 55 62 60 64 C65 62 70 58 70 52 L70 38 Z" 
        fill="rgba(255,255,255,0.2)"/>
  
  <!-- Checkmark inside shield -->
  <path d="M55 50 L58 53 L65 45" 
        stroke="white" 
        stroke-width="2.5" 
        stroke-linecap="round" 
        stroke-linejoin="round" 
        fill="none"/>
  
  <!-- Company name -->
  <text x="130" y="50" 
        font-family="Arial, sans-serif" 
        font-size="32" 
        font-weight="bold" 
        fill="url(#textGradient)" 
        letter-spacing="-1px">CoverCell</text>
  
  <!-- Tagline -->
  <text x="130" y="75" 
        font-family="Arial, sans-serif" 
        font-size="14" 
        font-weight="500" 
        fill="#6B7280" 
        letter-spacing="1px">MOBILE PROTECTION</text>
  
  <!-- Subtle highlight on shield -->
  <ellipse cx="50" cy="40" rx="8" ry="4" fill="rgba(255,255,255,0.4)" transform="rotate(-30 50 40)"/>
</svg>